<?xml version="1.0" standalone="no"?>
<!DOCTYPE svg PUBLIC "-//W3C//DTD SVG 20010904//EN"
 "http://www.w3.org/TR/2001/REC-SVG-20010904/DTD/svg10.dtd">
<svg version="1.0" xmlns="http://www.w3.org/2000/svg"
 width="225.000000pt" height="225.000000pt" viewBox="0 0 225.000000 225.000000"
 preserveAspectRatio="xMidYMid meet">
<metadata>
Created by potrace 1.16, written by Peter Selinger 2001-2019
</metadata>
<g transform="translate(0.000000,225.000000) scale(0.100000,-0.100000)"
fill="#000000" stroke="none">
<path d="M970 1915 c-245 -47 -310 -136 -310 -427 0 -71 -1 -128 -3 -128 -1 0
-34 13 -72 30 -85 36 -119 38 -139 8 -48 -75 -24 -124 89 -178 44 -20 88 -40
98 -43 12 -5 17 -18 19 -49 2 -76 -3 -98 -48 -217 -66 -175 -61 -208 55 -354
102 -128 247 -231 371 -263 201 -51 425 56 602 288 96 127 98 153 26 348 -47
129 -50 145 -42 187 l9 46 80 34 c44 18 97 47 118 64 33 27 37 36 37 75 0 31
-6 50 -21 65 -26 26 -58 23 -146 -14 l-63 -26 -2 107 c-3 172 -5 184 -26 246
-38 104 -100 160 -214 193 -76 21 -323 26 -418 8z m-125 -791 c68 -14 142 -18
300 -18 199 0 270 7 413 41 l22 5 0 -186 c0 -199 -4 -219 -52 -262 -12 -12
-91 -55 -174 -96 l-151 -74 -33 23 c-33 22 -59 20 -75 -7 -3 -6 -13 -10 -21
-10 -25 0 -320 149 -342 173 -36 39 -42 73 -42 259 l0 181 33 -6 c17 -3 73
-14 122 -23z"/>
</g>
</svg>
